<svg xmlns="http://www.w3.org/2000/svg" xmlns:xlink="http://www.w3.org/1999/xlink" width="500" zoomAndPan="magnify" viewBox="0 0 375 374.999991" height="500" preserveAspectRatio="xMidYMid meet" version="1.0"><defs><g/><clipPath id="id1"><path d="M 327 146.511719 L 374.625 146.511719 L 374.625 231 L 327 231 Z M 327 146.511719 " clip-rule="nonzero"/></clipPath><clipPath id="id2"><path d="M 324 219 L 337 219 L 337 231.824219 L 324 231.824219 Z M 324 219 " clip-rule="nonzero"/></clipPath></defs><g clip-path="url(#id1)"><path fill="#000000" d="M 334.59375 146.75 C 333.605469 147.113281 333.039062 147.410156 332.804688 147.6875 C 332.457031 148.117188 331.550781 150.136719 331.433594 150.742188 C 331.371094 151.105469 331.359375 151.824219 331.402344 152.570312 C 331.457031 153.574219 331.519531 153.851562 331.699219 154.109375 C 331.847656 154.3125 331.957031 154.675781 332 155.113281 C 332.050781 155.582031 332.15625 155.933594 332.382812 156.289062 C 332.847656 157.046875 332.902344 157.140625 333.296875 158.105469 L 333.667969 158.992188 L 332.988281 159.320312 C 332.613281 159.503906 332.03125 159.878906 331.699219 160.144531 C 331.359375 160.421875 330.859375 160.773438 330.59375 160.925781 C 329.925781 161.320312 329.480469 161.863281 329.023438 162.816406 C 328.691406 163.519531 328.648438 163.722656 328.648438 164.375 C 328.660156 165.003906 328.734375 165.28125 329.105469 166.160156 L 329.542969 167.195312 L 329.53125 169.257812 C 329.519531 170.878906 329.480469 171.511719 329.320312 172.214844 C 329.128906 173.027344 329.105469 173.570312 329.105469 178.25 C 329.105469 185.109375 329.140625 184.554688 328.605469 186.003906 C 328.351562 186.679688 327.980469 187.554688 327.777344 187.949219 L 327.40625 188.675781 L 327.691406 189.050781 C 327.917969 189.347656 327.992188 189.605469 328.074219 190.351562 C 328.128906 190.867188 328.222656 191.367188 328.277344 191.464844 C 328.332031 191.570312 328.628906 191.796875 328.949219 191.976562 C 329.371094 192.234375 329.648438 192.308594 330.0625 192.308594 C 330.511719 192.308594 330.605469 192.277344 330.605469 192.117188 C 330.605469 191.839844 330.394531 191.667969 330.0625 191.667969 C 329.894531 191.667969 329.628906 191.550781 329.46875 191.398438 L 329.171875 191.144531 L 329.808594 191.121094 C 330.160156 191.113281 330.5 191.121094 330.550781 191.132812 C 331.050781 191.28125 331.328125 191.25 331.390625 191.046875 C 331.433594 190.929688 331.59375 190.8125 331.773438 190.769531 C 332.210938 190.683594 332.210938 190.308594 331.785156 190.140625 C 331.574219 190.066406 331.457031 189.925781 331.414062 189.710938 C 331.308594 189.179688 331.339844 189.113281 331.773438 188.984375 C 332.125 188.878906 332.199219 188.804688 332.179688 188.632812 C 332.15625 188.515625 332.039062 188.355469 331.902344 188.292969 C 331.691406 188.183594 331.679688 188.152344 331.828125 188.035156 C 332.050781 187.855469 332.03125 187.640625 331.773438 187.554688 C 331.605469 187.5 331.5625 187.394531 331.5625 186.988281 C 331.5625 186.710938 331.488281 186.230469 331.414062 185.921875 C 331.296875 185.480469 331.285156 185.023438 331.351562 183.730469 C 331.445312 182.117188 331.648438 181.050781 332.082031 179.863281 C 332.371094 179.105469 333.113281 175.707031 333.304688 174.308594 C 333.464844 173.175781 333.636719 172.480469 333.796875 172.300781 C 333.910156 172.160156 334.527344 173.539062 334.761719 174.457031 C 334.878906 174.90625 335.015625 175.730469 335.070312 176.296875 C 335.125 176.851562 335.230469 177.460938 335.292969 177.632812 C 335.441406 177.992188 335.589844 180.195312 335.644531 183.035156 C 335.667969 184.230469 335.742188 185.183594 335.816406 185.429688 C 335.941406 185.792969 335.933594 185.84375 335.761719 185.953125 C 335.285156 186.21875 335.15625 186.445312 335.21875 186.847656 C 335.273438 187.191406 335.242188 187.253906 334.964844 187.414062 C 334.582031 187.640625 334.570312 187.757812 334.910156 188.398438 L 335.175781 188.902344 L 334.742188 189.488281 C 334.253906 190.128906 334.09375 190.84375 334.316406 191.28125 C 334.421875 191.476562 334.402344 191.613281 334.210938 192.105469 C 334.082031 192.414062 333.847656 193.109375 333.6875 193.644531 C 333.519531 194.167969 333.261719 194.914062 333.105469 195.289062 C 332.796875 196.027344 332.796875 196.378906 333.105469 197.296875 C 333.1875 197.554688 333.304688 198.480469 333.371094 199.378906 C 333.582031 202.382812 333.59375 202.464844 334.019531 203.160156 C 334.230469 203.503906 334.773438 204.601562 335.21875 205.585938 C 335.667969 206.578125 336.199219 207.648438 336.398438 207.957031 C 336.910156 208.726562 340.003906 211.78125 341.171875 212.679688 C 342.042969 213.339844 342.160156 213.480469 342.597656 214.3125 C 342.863281 214.816406 343.183594 215.382812 343.320312 215.585938 C 343.542969 215.914062 343.554688 215.957031 343.394531 216.203125 C 343.257812 216.417969 343.246094 216.523438 343.363281 216.941406 C 343.492188 217.390625 343.480469 217.433594 343.246094 217.699219 C 343.054688 217.914062 343.035156 217.964844 343.183594 217.914062 C 343.300781 217.871094 343.363281 217.902344 343.363281 217.988281 C 343.363281 218.0625 343.480469 218.253906 343.628906 218.414062 C 343.796875 218.597656 343.894531 218.832031 343.894531 219.046875 C 343.894531 219.398438 343.96875 219.707031 344.253906 220.457031 L 344.414062 220.882812 L 344.425781 220.304688 C 344.425781 219.964844 344.46875 219.761719 344.523438 219.824219 C 344.636719 219.953125 344.988281 221.183594 345.222656 222.269531 C 345.667969 224.355469 346.605469 225.742188 347.574219 225.742188 C 347.914062 225.742188 348.667969 225.304688 349.09375 224.847656 C 349.242188 224.695312 349.445312 224.566406 349.5625 224.566406 C 349.730469 224.566406 349.761719 224.515625 349.699219 224.238281 C 349.625 223.863281 349.785156 223.5 350.007812 223.5 C 350.210938 223.5 350.21875 223.039062 350.027344 222.878906 C 349.953125 222.816406 349.890625 222.515625 349.867188 222.207031 C 349.859375 221.824219 349.71875 221.34375 349.371094 220.574219 C 348.804688 219.292969 348.605469 218.640625 348.507812 217.828125 C 348.445312 217.273438 348.453125 217.21875 348.667969 217.144531 C 348.933594 217.058594 348.976562 216.621094 348.730469 216.386719 C 348.496094 216.152344 348.53125 215.628906 348.785156 215.488281 C 349.050781 215.347656 349.050781 215.144531 348.796875 214.910156 C 348.6875 214.804688 348.5625 214.570312 348.53125 214.367188 C 348.390625 213.671875 347.605469 213 346.316406 212.507812 C 345.605469 212.230469 345.574219 212.199219 345.234375 211.523438 C 345.042969 211.152344 344.371094 209.871094 343.746094 208.671875 C 342.9375 207.144531 342.535156 206.257812 342.386719 205.683594 C 342.140625 204.71875 341.566406 203.566406 340.640625 202.167969 C 340.269531 201.621094 340.015625 201.175781 340.054688 201.175781 C 340.109375 201.175781 340.207031 201.25 340.289062 201.34375 C 340.523438 201.621094 341.480469 202.0625 341.894531 202.070312 C 342.203125 202.070312 342.375 202.007812 342.585938 201.792969 L 342.875 201.503906 L 342.683594 200.769531 C 342.5 200.074219 342.5 200.011719 342.691406 199.316406 C 342.851562 198.695312 342.925781 198.566406 343.203125 198.449219 C 343.375 198.375 344.011719 197.851562 344.605469 197.285156 C 345.648438 196.3125 345.703125 196.269531 346.011719 196.378906 C 346.285156 196.472656 348.242188 198.398438 349.859375 200.148438 C 350.175781 200.492188 350.730469 201.015625 351.101562 201.3125 C 351.472656 201.601562 351.929688 202.070312 352.113281 202.347656 C 352.78125 203.320312 353.300781 203.941406 353.484375 203.953125 C 353.589844 203.953125 353.792969 204.195312 353.992188 204.582031 C 354.175781 204.921875 354.707031 205.683594 355.183594 206.257812 C 356.164062 207.476562 356.683594 208.222656 357.183594 209.132812 C 357.375 209.484375 357.726562 210.007812 357.96875 210.308594 C 358.214844 210.597656 358.46875 210.96875 358.53125 211.128906 C 358.609375 211.289062 358.914062 211.578125 359.222656 211.792969 C 360.179688 212.421875 360.746094 213.019531 360.988281 213.703125 C 361.359375 214.699219 361.710938 215.339844 362.859375 217.089844 C 363.464844 218 364.335938 219.34375 364.816406 220.070312 C 365.742188 221.480469 365.953125 222.003906 366.113281 223.265625 C 366.21875 224.109375 366.546875 224.984375 366.867188 225.273438 C 366.972656 225.371094 367.101562 225.625 367.132812 225.839844 C 367.175781 226.054688 367.398438 226.585938 367.632812 227.023438 C 368.527344 228.691406 368.875 229.4375 368.953125 229.84375 C 369.078125 230.644531 369.121094 230.65625 371.621094 230.65625 C 372.832031 230.65625 374 230.625 374.222656 230.59375 C 374.597656 230.527344 374.617188 230.496094 374.617188 230.132812 C 374.617188 229.640625 374.320312 229.023438 373.308594 227.324219 C 372.851562 226.585938 372.492188 225.945312 372.492188 225.902344 C 372.492188 225.871094 372.585938 225.894531 372.695312 225.957031 C 372.808594 226.011719 372.980469 226.03125 373.074219 226 C 373.308594 225.902344 373.097656 225.679688 372.703125 225.59375 C 372.480469 225.550781 372.3125 225.410156 372.160156 225.15625 C 372.035156 224.953125 371.894531 224.78125 371.84375 224.78125 C 371.621094 224.78125 370.664062 223.757812 370.460938 223.296875 C 370.34375 223.039062 370.132812 222.65625 369.984375 222.453125 C 369.492188 221.8125 368.984375 220.378906 368.984375 219.644531 C 368.984375 218.863281 368.460938 216.917969 367.707031 214.890625 C 366.941406 212.851562 366.601562 212.132812 365.835938 210.980469 C 365.464844 210.414062 365.070312 209.742188 364.953125 209.484375 C 364.835938 209.207031 364.527344 208.824219 364.167969 208.511719 C 363.839844 208.234375 363.539062 207.914062 363.507812 207.796875 C 363.476562 207.691406 363.347656 207.5625 363.242188 207.53125 C 362.882812 207.414062 361.253906 204.433594 360.945312 203.332031 C 360.746094 202.59375 360.796875 202.347656 361.160156 202.347656 C 361.796875 202.347656 363.988281 201.484375 363.988281 201.226562 C 363.988281 200.929688 363.359375 199.5625 363 199.070312 C 362.796875 198.78125 362.339844 197.949219 361.988281 197.210938 C 361.648438 196.472656 361.074219 195.449219 360.722656 194.914062 C 360.371094 194.390625 359.957031 193.71875 359.796875 193.410156 C 359.425781 192.734375 359.105469 192.402344 358.363281 192.007812 L 357.789062 191.6875 L 357.777344 190.941406 C 357.769531 190.300781 357.726562 190.140625 357.511719 189.914062 C 357.128906 189.507812 356.640625 189.382812 356.203125 189.5625 L 355.84375 189.710938 L 355.707031 188.902344 C 355.628906 188.453125 355.554688 187.84375 355.546875 187.554688 C 355.472656 186.027344 354.492188 182.621094 353.652344 180.941406 C 353.535156 180.707031 353.261719 180.011719 353.035156 179.394531 C 352.8125 178.773438 352.539062 177.992188 352.421875 177.671875 C 351.953125 176.371094 351.558594 174.90625 351.507812 174.203125 C 351.464844 173.785156 351.316406 172.953125 351.175781 172.332031 C 350.890625 171.148438 350.496094 169.097656 350.484375 168.773438 C 350.484375 168.605469 350.507812 168.605469 350.890625 168.796875 C 351.441406 169.085938 352.867188 169.523438 353.515625 169.609375 C 353.8125 169.652344 354.375 169.800781 354.78125 169.941406 C 356.109375 170.398438 357.40625 170.226562 357.578125 169.566406 C 357.671875 169.171875 357.523438 167.769531 357.34375 167.417969 C 357.097656 166.9375 356.164062 165.71875 355.855469 165.476562 C 355.707031 165.355469 355.472656 165.035156 355.332031 164.757812 C 354.980469 164.085938 354.078125 163.230469 352.730469 162.34375 C 352.3125 162.066406 351.972656 161.769531 351.972656 161.683594 C 351.972656 161.480469 350.707031 160.15625 349.933594 159.546875 C 349.59375 159.289062 349.316406 159.023438 349.316406 158.957031 C 349.316406 158.789062 348.371094 157.785156 348.007812 157.570312 C 347.847656 157.472656 347.414062 157.367188 347.050781 157.324219 C 346.691406 157.28125 346.160156 157.140625 345.859375 157.015625 C 345.402344 156.8125 345.171875 156.78125 344.265625 156.8125 C 343.683594 156.832031 343.066406 156.886719 342.882812 156.941406 C 342.660156 157.003906 342.46875 156.980469 342.257812 156.875 C 342.097656 156.789062 341.875 156.738281 341.769531 156.769531 C 341.195312 156.917969 340.589844 155.1875 340.917969 154.332031 C 341.152344 153.722656 341.238281 152.613281 341.152344 151.503906 C 341.066406 150.519531 341.003906 150.261719 340.628906 149.472656 C 340.140625 148.414062 339.707031 147.882812 338.960938 147.402344 C 337.972656 146.769531 337.335938 146.554688 336.292969 146.515625 C 335.476562 146.480469 335.230469 146.515625 334.59375 146.75 Z M 334.59375 146.75 " fill-opacity="1" fill-rule="nonzero"/></g><g clip-path="url(#id2)"><path fill="#000000" d="M 329.277344 219.546875 C 326.949219 219.964844 325.195312 221.535156 324.375 223.925781 C 324.078125 224.78125 324.109375 226.511719 324.429688 227.453125 C 325.109375 229.4375 326.46875 230.785156 328.480469 231.46875 C 329.371094 231.777344 331.0625 231.746094 332.074219 231.414062 C 334.210938 230.710938 335.6875 229.011719 336.15625 226.726562 C 336.441406 225.316406 336.292969 224.269531 335.613281 222.859375 C 335.167969 221.90625 334.0625 220.734375 333.179688 220.261719 C 332.074219 219.664062 330.394531 219.355469 329.277344 219.546875 Z M 329.277344 219.546875 " fill-opacity="1" fill-rule="nonzero"/></g><g fill="#000000" fill-opacity="1"><g transform="translate(13.081058, 202.593738)"><g><path d="M 23.875 -42.359375 C 27 -42.359375 30.070312 -41.71875 33.09375 -40.4375 C 36.113281 -39.15625 38.679688 -37.4375 40.796875 -35.28125 L 34.625 -27.953125 C 33.257812 -29.640625 31.625 -30.972656 29.71875 -31.953125 C 27.820312 -32.929688 25.9375 -33.421875 24.0625 -33.421875 C 20.738281 -33.421875 17.957031 -32.25 15.71875 -29.90625 C 13.476562 -27.570312 12.359375 -24.679688 12.359375 -21.234375 C 12.359375 -17.710938 13.476562 -14.769531 15.71875 -12.40625 C 17.957031 -10.050781 20.738281 -8.875 24.0625 -8.875 C 25.820312 -8.875 27.648438 -9.3125 29.546875 -10.1875 C 31.453125 -11.070312 33.144531 -12.273438 34.625 -13.796875 L 40.859375 -7.203125 C 38.578125 -4.878906 35.882812 -3.015625 32.78125 -1.609375 C 29.6875 -0.210938 26.597656 0.484375 23.515625 0.484375 C 17.203125 0.484375 11.941406 -1.570312 7.734375 -5.6875 C 3.535156 -9.8125 1.4375 -14.957031 1.4375 -21.125 C 1.4375 -27.164062 3.578125 -32.210938 7.859375 -36.265625 C 12.140625 -40.328125 17.476562 -42.359375 23.875 -42.359375 Z M 23.875 -42.359375 "/></g></g></g><g fill="#000000" fill-opacity="1"><g transform="translate(54.600979, 202.593738)"><g><path d="M 14.875 -8.9375 L 32.703125 -8.9375 L 32.703125 0 L 4.203125 0 L 4.203125 -42 L 14.875 -42 Z M 14.875 -8.9375 "/></g></g></g><g fill="#000000" fill-opacity="1"><g transform="translate(88.200916, 202.593738)"><g><path d="M 32.09375 -7.734375 L 13.734375 -7.734375 L 10.6875 0 L -0.296875 0 L 17.8125 -42 L 28.796875 -42 L 46.5 0 L 35.09375 0 Z M 28.984375 -15.84375 L 22.984375 -31.375 L 16.859375 -15.84375 Z M 28.984375 -15.84375 "/></g></g></g><g fill="#000000" fill-opacity="1"><g transform="translate(134.400839, 202.593738)"><g><path d="M 20.34375 -42.484375 C 26.625 -42.484375 32.144531 -40.921875 36.90625 -37.796875 L 32.875 -29.453125 C 30.675781 -30.734375 28.316406 -31.785156 25.796875 -32.609375 C 23.273438 -33.429688 21.15625 -33.84375 19.4375 -33.84375 C 16.351562 -33.84375 14.8125 -32.820312 14.8125 -30.78125 C 14.8125 -29.457031 15.570312 -28.394531 17.09375 -27.59375 C 18.613281 -26.800781 20.460938 -26.113281 22.640625 -25.53125 C 24.828125 -24.945312 27.007812 -24.242188 29.1875 -23.421875 C 31.363281 -22.609375 33.210938 -21.28125 34.734375 -19.4375 C 36.253906 -17.601562 37.015625 -15.285156 37.015625 -12.484375 C 37.015625 -8.441406 35.4375 -5.289062 32.28125 -3.03125 C 29.125 -0.769531 25.101562 0.359375 20.21875 0.359375 C 16.738281 0.359375 13.296875 -0.238281 9.890625 -1.4375 C 6.492188 -2.632812 3.535156 -4.273438 1.015625 -6.359375 L 5.15625 -14.578125 C 7.28125 -12.734375 9.78125 -11.222656 12.65625 -10.046875 C 15.539062 -8.867188 18.101562 -8.28125 20.34375 -8.28125 C 22.0625 -8.28125 23.398438 -8.585938 24.359375 -9.203125 C 25.316406 -9.828125 25.796875 -10.738281 25.796875 -11.9375 C 25.796875 -13.101562 25.242188 -14.070312 24.140625 -14.84375 C 23.046875 -15.625 21.675781 -16.203125 20.03125 -16.578125 C 18.394531 -16.960938 16.613281 -17.472656 14.6875 -18.109375 C 12.769531 -18.753906 10.992188 -19.457031 9.359375 -20.21875 C 7.722656 -20.976562 6.351562 -22.1875 5.25 -23.84375 C 4.144531 -25.507812 3.59375 -27.5 3.59375 -29.8125 C 3.59375 -33.65625 5.125 -36.726562 8.1875 -39.03125 C 11.25 -41.332031 15.300781 -42.484375 20.34375 -42.484375 Z M 20.34375 -42.484375 "/></g></g></g><g fill="#000000" fill-opacity="1"><g transform="translate(173.040768, 202.593738)"><g><path d="M 20.34375 -42.484375 C 26.625 -42.484375 32.144531 -40.921875 36.90625 -37.796875 L 32.875 -29.453125 C 30.675781 -30.734375 28.316406 -31.785156 25.796875 -32.609375 C 23.273438 -33.429688 21.15625 -33.84375 19.4375 -33.84375 C 16.351562 -33.84375 14.8125 -32.820312 14.8125 -30.78125 C 14.8125 -29.457031 15.570312 -28.394531 17.09375 -27.59375 C 18.613281 -26.800781 20.460938 -26.113281 22.640625 -25.53125 C 24.828125 -24.945312 27.007812 -24.242188 29.1875 -23.421875 C 31.363281 -22.609375 33.210938 -21.28125 34.734375 -19.4375 C 36.253906 -17.601562 37.015625 -15.285156 37.015625 -12.484375 C 37.015625 -8.441406 35.4375 -5.289062 32.28125 -3.03125 C 29.125 -0.769531 25.101562 0.359375 20.21875 0.359375 C 16.738281 0.359375 13.296875 -0.238281 9.890625 -1.4375 C 6.492188 -2.632812 3.535156 -4.273438 1.015625 -6.359375 L 5.15625 -14.578125 C 7.28125 -12.734375 9.78125 -11.222656 12.65625 -10.046875 C 15.539062 -8.867188 18.101562 -8.28125 20.34375 -8.28125 C 22.0625 -8.28125 23.398438 -8.585938 24.359375 -9.203125 C 25.316406 -9.828125 25.796875 -10.738281 25.796875 -11.9375 C 25.796875 -13.101562 25.242188 -14.070312 24.140625 -14.84375 C 23.046875 -15.625 21.675781 -16.203125 20.03125 -16.578125 C 18.394531 -16.960938 16.613281 -17.472656 14.6875 -18.109375 C 12.769531 -18.753906 10.992188 -19.457031 9.359375 -20.21875 C 7.722656 -20.976562 6.351562 -22.1875 5.25 -23.84375 C 4.144531 -25.507812 3.59375 -27.5 3.59375 -29.8125 C 3.59375 -33.65625 5.125 -36.726562 8.1875 -39.03125 C 11.25 -41.332031 15.300781 -42.484375 20.34375 -42.484375 Z M 20.34375 -42.484375 "/></g></g></g><g fill="#000000" fill-opacity="1"><g transform="translate(211.680697, 202.593738)"><g><path d="M 14.875 0 L 4.203125 0 L 4.203125 -42 L 14.875 -42 Z M 14.875 0 "/></g></g></g><g fill="#000000" fill-opacity="1"><g transform="translate(230.760658, 202.593738)"><g><path d="M 23.875 -42.359375 C 27 -42.359375 30.070312 -41.71875 33.09375 -40.4375 C 36.113281 -39.15625 38.679688 -37.4375 40.796875 -35.28125 L 34.625 -27.953125 C 33.257812 -29.640625 31.625 -30.972656 29.71875 -31.953125 C 27.820312 -32.929688 25.9375 -33.421875 24.0625 -33.421875 C 20.738281 -33.421875 17.957031 -32.25 15.71875 -29.90625 C 13.476562 -27.570312 12.359375 -24.679688 12.359375 -21.234375 C 12.359375 -17.710938 13.476562 -14.769531 15.71875 -12.40625 C 17.957031 -10.050781 20.738281 -8.875 24.0625 -8.875 C 25.820312 -8.875 27.648438 -9.3125 29.546875 -10.1875 C 31.453125 -11.070312 33.144531 -12.273438 34.625 -13.796875 L 40.859375 -7.203125 C 38.578125 -4.878906 35.882812 -3.015625 32.78125 -1.609375 C 29.6875 -0.210938 26.597656 0.484375 23.515625 0.484375 C 17.203125 0.484375 11.941406 -1.570312 7.734375 -5.6875 C 3.535156 -9.8125 1.4375 -14.957031 1.4375 -21.125 C 1.4375 -27.164062 3.578125 -32.210938 7.859375 -36.265625 C 12.140625 -40.328125 17.476562 -42.359375 23.875 -42.359375 Z M 23.875 -42.359375 "/></g></g></g><g fill="#000000" fill-opacity="1"><g transform="translate(272.280564, 202.593738)"><g><path d="M 20.34375 -42.484375 C 26.625 -42.484375 32.144531 -40.921875 36.90625 -37.796875 L 32.875 -29.453125 C 30.675781 -30.734375 28.316406 -31.785156 25.796875 -32.609375 C 23.273438 -33.429688 21.15625 -33.84375 19.4375 -33.84375 C 16.351562 -33.84375 14.8125 -32.820312 14.8125 -30.78125 C 14.8125 -29.457031 15.570312 -28.394531 17.09375 -27.59375 C 18.613281 -26.800781 20.460938 -26.113281 22.640625 -25.53125 C 24.828125 -24.945312 27.007812 -24.242188 29.1875 -23.421875 C 31.363281 -22.609375 33.210938 -21.28125 34.734375 -19.4375 C 36.253906 -17.601562 37.015625 -15.285156 37.015625 -12.484375 C 37.015625 -8.441406 35.4375 -5.289062 32.28125 -3.03125 C 29.125 -0.769531 25.101562 0.359375 20.21875 0.359375 C 16.738281 0.359375 13.296875 -0.238281 9.890625 -1.4375 C 6.492188 -2.632812 3.535156 -4.273438 1.015625 -6.359375 L 5.15625 -14.578125 C 7.28125 -12.734375 9.78125 -11.222656 12.65625 -10.046875 C 15.539062 -8.867188 18.101562 -8.28125 20.34375 -8.28125 C 22.0625 -8.28125 23.398438 -8.585938 24.359375 -9.203125 C 25.316406 -9.828125 25.796875 -10.738281 25.796875 -11.9375 C 25.796875 -13.101562 25.242188 -14.070312 24.140625 -14.84375 C 23.046875 -15.625 21.675781 -16.203125 20.03125 -16.578125 C 18.394531 -16.960938 16.613281 -17.472656 14.6875 -18.109375 C 12.769531 -18.753906 10.992188 -19.457031 9.359375 -20.21875 C 7.722656 -20.976562 6.351562 -22.1875 5.25 -23.84375 C 4.144531 -25.507812 3.59375 -27.5 3.59375 -29.8125 C 3.59375 -33.65625 5.125 -36.726562 8.1875 -39.03125 C 11.25 -41.332031 15.300781 -42.484375 20.34375 -42.484375 Z M 20.34375 -42.484375 "/></g></g></g><g fill="#000000" fill-opacity="1"><g transform="translate(18.100081, 227.906236)"><g><path d="M 3.078125 -9.1875 L 3.078125 -5.53125 L 8.34375 -5.53125 L 8.34375 -4.25 L 3.078125 -4.25 L 3.078125 0 L 1.578125 0 L 1.578125 -10.5 L 8.984375 -10.5 L 8.984375 -9.1875 Z M 3.078125 -9.1875 "/></g></g></g><g fill="#000000" fill-opacity="1"><g transform="translate(39.040096, 227.906236)"><g><path d="M 6.3125 0.125 C 5.25 0.125 4.289062 -0.109375 3.4375 -0.578125 C 2.59375 -1.046875 1.925781 -1.6875 1.4375 -2.5 C 0.957031 -3.320312 0.71875 -4.238281 0.71875 -5.25 C 0.71875 -6.257812 0.957031 -7.171875 1.4375 -7.984375 C 1.925781 -8.804688 2.59375 -9.453125 3.4375 -9.921875 C 4.289062 -10.390625 5.25 -10.625 6.3125 -10.625 C 7.363281 -10.625 8.3125 -10.390625 9.15625 -9.921875 C 10.007812 -9.453125 10.675781 -8.8125 11.15625 -8 C 11.632812 -7.1875 11.875 -6.269531 11.875 -5.25 C 11.875 -4.226562 11.632812 -3.3125 11.15625 -2.5 C 10.675781 -1.6875 10.007812 -1.046875 9.15625 -0.578125 C 8.3125 -0.109375 7.363281 0.125 6.3125 0.125 Z M 6.3125 -1.21875 C 7.082031 -1.21875 7.773438 -1.390625 8.390625 -1.734375 C 9.003906 -2.085938 9.488281 -2.570312 9.84375 -3.1875 C 10.195312 -3.800781 10.375 -4.488281 10.375 -5.25 C 10.375 -6.007812 10.195312 -6.695312 9.84375 -7.3125 C 9.488281 -7.925781 9.003906 -8.40625 8.390625 -8.75 C 7.773438 -9.101562 7.082031 -9.28125 6.3125 -9.28125 C 5.539062 -9.28125 4.84375 -9.101562 4.21875 -8.75 C 3.59375 -8.40625 3.101562 -7.925781 2.75 -7.3125 C 2.394531 -6.695312 2.21875 -6.007812 2.21875 -5.25 C 2.21875 -4.488281 2.394531 -3.800781 2.75 -3.1875 C 3.101562 -2.570312 3.59375 -2.085938 4.21875 -1.734375 C 4.84375 -1.390625 5.539062 -1.21875 6.3125 -1.21875 Z M 6.3125 -1.21875 "/></g></g></g><g fill="#000000" fill-opacity="1"><g transform="translate(63.055125, 227.906236)"><g><path d="M 6.3125 0.125 C 5.25 0.125 4.289062 -0.109375 3.4375 -0.578125 C 2.59375 -1.046875 1.925781 -1.6875 1.4375 -2.5 C 0.957031 -3.320312 0.71875 -4.238281 0.71875 -5.25 C 0.71875 -6.257812 0.957031 -7.171875 1.4375 -7.984375 C 1.925781 -8.804688 2.59375 -9.453125 3.4375 -9.921875 C 4.289062 -10.390625 5.25 -10.625 6.3125 -10.625 C 7.363281 -10.625 8.3125 -10.390625 9.15625 -9.921875 C 10.007812 -9.453125 10.675781 -8.8125 11.15625 -8 C 11.632812 -7.1875 11.875 -6.269531 11.875 -5.25 C 11.875 -4.226562 11.632812 -3.3125 11.15625 -2.5 C 10.675781 -1.6875 10.007812 -1.046875 9.15625 -0.578125 C 8.3125 -0.109375 7.363281 0.125 6.3125 0.125 Z M 6.3125 -1.21875 C 7.082031 -1.21875 7.773438 -1.390625 8.390625 -1.734375 C 9.003906 -2.085938 9.488281 -2.570312 9.84375 -3.1875 C 10.195312 -3.800781 10.375 -4.488281 10.375 -5.25 C 10.375 -6.007812 10.195312 -6.695312 9.84375 -7.3125 C 9.488281 -7.925781 9.003906 -8.40625 8.390625 -8.75 C 7.773438 -9.101562 7.082031 -9.28125 6.3125 -9.28125 C 5.539062 -9.28125 4.84375 -9.101562 4.21875 -8.75 C 3.59375 -8.40625 3.101562 -7.925781 2.75 -7.3125 C 2.394531 -6.695312 2.21875 -6.007812 2.21875 -5.25 C 2.21875 -4.488281 2.394531 -3.800781 2.75 -3.1875 C 3.101562 -2.570312 3.59375 -2.085938 4.21875 -1.734375 C 4.84375 -1.390625 5.539062 -1.21875 6.3125 -1.21875 Z M 6.3125 -1.21875 "/></g></g></g><g fill="#000000" fill-opacity="1"><g transform="translate(87.070156, 227.906236)"><g><path d="M 3.65625 -9.1875 L 0.0625 -9.1875 L 0.0625 -10.5 L 8.75 -10.5 L 8.75 -9.1875 L 5.140625 -9.1875 L 5.140625 0 L 3.65625 0 Z M 3.65625 -9.1875 "/></g></g></g><g fill="#000000" fill-opacity="1"><g transform="translate(107.290162, 227.906236)"><g><path d="M 8.640625 -5.4375 C 9.253906 -5.269531 9.734375 -4.960938 10.078125 -4.515625 C 10.429688 -4.078125 10.609375 -3.515625 10.609375 -2.828125 C 10.609375 -1.921875 10.265625 -1.222656 9.578125 -0.734375 C 8.890625 -0.242188 7.890625 0 6.578125 0 L 1.578125 0 L 1.578125 -10.5 L 6.28125 -10.5 C 7.476562 -10.5 8.40625 -10.257812 9.0625 -9.78125 C 9.71875 -9.300781 10.046875 -8.632812 10.046875 -7.78125 C 10.046875 -7.226562 9.914062 -6.753906 9.65625 -6.359375 C 9.40625 -5.960938 9.066406 -5.65625 8.640625 -5.4375 Z M 3.078125 -9.28125 L 3.078125 -5.921875 L 6.15625 -5.921875 C 6.925781 -5.921875 7.515625 -6.0625 7.921875 -6.34375 C 8.335938 -6.632812 8.546875 -7.054688 8.546875 -7.609375 C 8.546875 -8.160156 8.335938 -8.578125 7.921875 -8.859375 C 7.515625 -9.140625 6.925781 -9.28125 6.15625 -9.28125 Z M 6.53125 -1.21875 C 7.375 -1.21875 8.007812 -1.359375 8.4375 -1.640625 C 8.875 -1.921875 9.09375 -2.359375 9.09375 -2.953125 C 9.09375 -4.117188 8.238281 -4.703125 6.53125 -4.703125 L 3.078125 -4.703125 L 3.078125 -1.21875 Z M 6.53125 -1.21875 "/></g></g></g><g fill="#000000" fill-opacity="1"><g transform="translate(130.060184, 227.906236)"><g><path d="M 8.265625 -2.625 L 2.6875 -2.625 L 1.53125 0 L -0.015625 0 L 4.734375 -10.5 L 6.21875 -10.5 L 11 0 L 9.421875 0 Z M 7.734375 -3.828125 L 5.46875 -8.96875 L 3.203125 -3.828125 Z M 7.734375 -3.828125 "/></g></g></g><g fill="#000000" fill-opacity="1"><g transform="translate(152.455198, 227.906236)"><g><path d="M 1.578125 -10.5 L 3.078125 -10.5 L 3.078125 -1.3125 L 8.765625 -1.3125 L 8.765625 0 L 1.578125 0 Z M 1.578125 -10.5 "/></g></g></g><g fill="#000000" fill-opacity="1"><g transform="translate(172.780204, 227.906236)"><g><path d="M 1.578125 -10.5 L 3.078125 -10.5 L 3.078125 -1.3125 L 8.765625 -1.3125 L 8.765625 0 L 1.578125 0 Z M 1.578125 -10.5 "/></g></g></g><g fill="#000000" fill-opacity="1"><g transform="translate(193.10521, 227.906236)"><g/></g></g><g fill="#000000" fill-opacity="1"><g transform="translate(208.555219, 227.906236)"><g><path d="M 4.640625 0.125 C 3.847656 0.125 3.082031 0.00390625 2.34375 -0.234375 C 1.613281 -0.484375 1.035156 -0.804688 0.609375 -1.203125 L 1.171875 -2.375 C 1.566406 -2.007812 2.078125 -1.710938 2.703125 -1.484375 C 3.328125 -1.265625 3.972656 -1.15625 4.640625 -1.15625 C 5.503906 -1.15625 6.148438 -1.300781 6.578125 -1.59375 C 7.015625 -1.894531 7.234375 -2.289062 7.234375 -2.78125 C 7.234375 -3.132812 7.113281 -3.421875 6.875 -3.640625 C 6.644531 -3.867188 6.351562 -4.039062 6 -4.15625 C 5.65625 -4.28125 5.171875 -4.421875 4.546875 -4.578125 C 3.753906 -4.765625 3.113281 -4.953125 2.625 -5.140625 C 2.144531 -5.335938 1.734375 -5.628906 1.390625 -6.015625 C 1.046875 -6.410156 0.875 -6.945312 0.875 -7.625 C 0.875 -8.175781 1.019531 -8.675781 1.3125 -9.125 C 1.601562 -9.582031 2.050781 -9.945312 2.65625 -10.21875 C 3.257812 -10.488281 4.003906 -10.625 4.890625 -10.625 C 5.503906 -10.625 6.113281 -10.539062 6.71875 -10.375 C 7.320312 -10.21875 7.835938 -9.988281 8.265625 -9.6875 L 7.765625 -8.484375 C 7.328125 -8.765625 6.859375 -8.976562 6.359375 -9.125 C 5.859375 -9.269531 5.367188 -9.34375 4.890625 -9.34375 C 4.035156 -9.34375 3.394531 -9.1875 2.96875 -8.875 C 2.550781 -8.570312 2.34375 -8.175781 2.34375 -7.6875 C 2.34375 -7.320312 2.460938 -7.023438 2.703125 -6.796875 C 2.941406 -6.578125 3.238281 -6.40625 3.59375 -6.28125 C 3.945312 -6.15625 4.429688 -6.019531 5.046875 -5.875 C 5.828125 -5.6875 6.457031 -5.5 6.9375 -5.3125 C 7.425781 -5.125 7.84375 -4.832031 8.1875 -4.4375 C 8.53125 -4.050781 8.703125 -3.523438 8.703125 -2.859375 C 8.703125 -2.316406 8.550781 -1.816406 8.25 -1.359375 C 7.945312 -0.898438 7.488281 -0.535156 6.875 -0.265625 C 6.269531 -0.00390625 5.523438 0.125 4.640625 0.125 Z M 4.640625 0.125 "/></g></g></g><g fill="#000000" fill-opacity="1"><g transform="translate(229.285232, 227.906236)"><g><path d="M 3.65625 -9.1875 L 0.0625 -9.1875 L 0.0625 -10.5 L 8.75 -10.5 L 8.75 -9.1875 L 5.140625 -9.1875 L 5.140625 0 L 3.65625 0 Z M 3.65625 -9.1875 "/></g></g></g><g fill="#000000" fill-opacity="1"><g transform="translate(249.505238, 227.906236)"><g><path d="M 6.3125 0.125 C 5.25 0.125 4.289062 -0.109375 3.4375 -0.578125 C 2.59375 -1.046875 1.925781 -1.6875 1.4375 -2.5 C 0.957031 -3.320312 0.71875 -4.238281 0.71875 -5.25 C 0.71875 -6.257812 0.957031 -7.171875 1.4375 -7.984375 C 1.925781 -8.804688 2.59375 -9.453125 3.4375 -9.921875 C 4.289062 -10.390625 5.25 -10.625 6.3125 -10.625 C 7.363281 -10.625 8.3125 -10.390625 9.15625 -9.921875 C 10.007812 -9.453125 10.675781 -8.8125 11.15625 -8 C 11.632812 -7.1875 11.875 -6.269531 11.875 -5.25 C 11.875 -4.226562 11.632812 -3.3125 11.15625 -2.5 C 10.675781 -1.6875 10.007812 -1.046875 9.15625 -0.578125 C 8.3125 -0.109375 7.363281 0.125 6.3125 0.125 Z M 6.3125 -1.21875 C 7.082031 -1.21875 7.773438 -1.390625 8.390625 -1.734375 C 9.003906 -2.085938 9.488281 -2.570312 9.84375 -3.1875 C 10.195312 -3.800781 10.375 -4.488281 10.375 -5.25 C 10.375 -6.007812 10.195312 -6.695312 9.84375 -7.3125 C 9.488281 -7.925781 9.003906 -8.40625 8.390625 -8.75 C 7.773438 -9.101562 7.082031 -9.28125 6.3125 -9.28125 C 5.539062 -9.28125 4.84375 -9.101562 4.21875 -8.75 C 3.59375 -8.40625 3.101562 -7.925781 2.75 -7.3125 C 2.394531 -6.695312 2.21875 -6.007812 2.21875 -5.25 C 2.21875 -4.488281 2.394531 -3.800781 2.75 -3.1875 C 3.101562 -2.570312 3.59375 -2.085938 4.21875 -1.734375 C 4.84375 -1.390625 5.539062 -1.21875 6.3125 -1.21875 Z M 6.3125 -1.21875 "/></g></g></g><g fill="#000000" fill-opacity="1"><g transform="translate(273.520263, 227.906236)"><g><path d="M 8.59375 0 L 6.328125 -3.21875 C 6.046875 -3.195312 5.828125 -3.1875 5.671875 -3.1875 L 3.078125 -3.1875 L 3.078125 0 L 1.578125 0 L 1.578125 -10.5 L 5.671875 -10.5 C 7.023438 -10.5 8.09375 -10.171875 8.875 -9.515625 C 9.65625 -8.867188 10.046875 -7.976562 10.046875 -6.84375 C 10.046875 -6.03125 9.84375 -5.335938 9.4375 -4.765625 C 9.039062 -4.203125 8.472656 -3.789062 7.734375 -3.53125 L 10.234375 0 Z M 5.625 -4.46875 C 6.570312 -4.46875 7.296875 -4.671875 7.796875 -5.078125 C 8.296875 -5.492188 8.546875 -6.082031 8.546875 -6.84375 C 8.546875 -7.601562 8.296875 -8.179688 7.796875 -8.578125 C 7.296875 -8.984375 6.570312 -9.1875 5.625 -9.1875 L 3.078125 -9.1875 L 3.078125 -4.46875 Z M 5.625 -4.46875 "/></g></g></g><g fill="#000000" fill-opacity="1"><g transform="translate(295.840275, 227.906236)"><g><path d="M 9.1875 -1.3125 L 9.1875 0 L 1.578125 0 L 1.578125 -10.5 L 8.984375 -10.5 L 8.984375 -9.1875 L 3.078125 -9.1875 L 3.078125 -5.96875 L 8.34375 -5.96875 L 8.34375 -4.6875 L 3.078125 -4.6875 L 3.078125 -1.3125 Z M 9.1875 -1.3125 "/></g></g></g></svg>